P2
# CREATOR: GIMP PNM Filter Version 1.1
100 110
255
136
145
151
153
160
145
143
150
150
148
152
153
145
160
168
170
195
201
179
175
165
168
170
151
140
165
151
140
149
136
150
146
159
157
180
190
183
186
183
192
213
222
223
221
212
199
179
172
157
137
141
142
147
157
138
112
112
109
144
139
105
106
130
138
136
123
122
111
144
143
127
128
135
126
122
125
120
130
145
145
146
142
133
109
127
125
122
122
121
127
149
162
137
112
117
109
101
101
106
102
122
141
159
135
153
158
135
143
144
131
162
163
160
181
159
157
174
160
160
166
154
153
145
153
151
156
147
138
149
145
140
141
151
164
171
186
187
192
188
174
178
207
220
232
225
208
201
196
187
188
190
177
174
180
153
123
144
166
172
157
147
129
162
184
169
151
127
118
122
116
126
148
149
136
132
133
120
125
125
135
114
119
125
121
145
142
129
129
129
139
132
121
119
122
149
157
124
105
127
105
156
159
150
147
166
154
149
152
147
143
164
161
167
166
152
163
165
166
159
144
172
180
157
167
173
160
149
155
141
147
168
152
151
170
171
194
200
180
189
198
195
186
195
176
174
201
188
178
193
191
185
161
148
159
138
130
144
149
139
145
148
159
162
160
130
114
113
126
125
123
126
143
131
121
125
131
151
154
109
145
148
126
134
117
139
151
145
142
132
130
129
115
116
133
144
139
139
143
143
121
157
157
158
164
159
158
164
142
155
160
168
162
144
159
155
152
155
161
152
150
155
162
150
162
166
165
181
188
175
183
187
178
177
164
159
206
196
184
191
179
191
203
190
168
158
171
168
165
181
190
171
149
142
145
167
168
169
165
146
145
149
148
164
149
137
134
128
143
125
121
111
142
129
119
120
131
134
118
135
145
138
118
120
119
140
141
137
136
132
132
112
111
133
142
128
124
127
127
137
138
181
179
175
163
146
148
181
193
200
188
198
206
193
198
189
186
183
177
177
175
176
167
153
156
173
175
168
177
166
156
184
207
197
160
159
177
174
190
195
171
182
192
159
157
157
161
165
170
165
151
157
155
151
158
177
184
190
177
169
170
169
163
165
153
160
131
146
158
154
145
147
144
136
120
126
136
125
120
141
138
122
117
115
124
140
114
127
132
116
115
107
107
108
121
108
118
125
126
130
131
173
175
181
171
177
189
187
191
188
197
210
212
192
217
204
202
215
211
199
169
157
158
169
175
180
173
156
137
149
169
182
173
180
179
185
183
184
187
180
174
187
207
196
186
175
165
183
195
172
165
169
169
160
153
152
163
152
163
172
183
195
185
153
164
159
145
178
192
190
172
148
125
133
133
144
158
149
144
142
124
128
120
113
106
121
120
117
144
116
94
108
102
93
109
122
123
113
104
107
108
182
191
194
174
170
174
164
167
173
206
228
217
204
233
211
189
214
215
192
186
196
207
224
231
211
193
183
176
184
193
182
165
180
187
189
203
200
174
159
166
186
195
186
177
169
153
150
149
173
168
142
147
166
183
178
184
181
173
183
196
201
181
174
189
196
199
190
177
172
174
160
144
160
171
161
150
142
148
148
136
122
147
141
119
130
156
131
121
118
101
101
106
104
118
143
138
130
113
107
88
177
183
193
189
204
213
203
206
201
217
232
232
217
231
205
191
216
212
212
216
203
213
227
215
202
208
202
171
184
210
194
185
189
165
178
159
152
177
217
196
175
181
166
174
179
175
166
143
137
139
150
170
168
151
161
175
174
199
213
200
189
190
195
178
172
198
210
188
152
151
165
156
156
170
159
159
169
176
182
176
161
148
115
110
114
140
138
116
117
117
106
97
107
117
116
109
116
117
124
130
170
167
195
207
203
195
204
217
241
236
238
238
232
209
225
250
254
235
221
228
227
219
204
196
204
214
192
206
205
188
191
198
207
211
217
178
200
210
203
206
183
166
169
186
186
197
200
185
160
154
167
167
155
163
177
171
197
214
214
217
220
211
198
185
163
166
175
167
138
143
160
165
160
168
150
141
152
164
156
139
159
181
166
145
135
142
149
148
148
162
159
142
136
128
116
109
121
115
113
114
223
233
221
213
216
235
240
227
233
207
217
240
218
218
216
239
239
216
195
198
204
216
224
226
220
220
222
227
242
238
236
234
222
204
187
194
207
205
200
211
215
196
177
190
188
189
201
195
198
192
190
192
188
192
179
165
192
208
204
191
174
173
167
153
148
150
141
133
122
117
141
156
146
154
163
167
172
174
163
134
122
132
147
151
151
154
155
164
155
136
141
138
136
136
136
140
148
133
114
139
254
255
249
243
226
225
213
209
231
226
218
196
186
188
200
209
225
218
213
210
220
227
217
220
216
223
228
215
219
213
203
183
172
179
180
186
188
200
199
193
205
193
164
176
203
205
205
202
200
195
203
211
187
188
172
180
192
173
158
169
166
158
152
147
155
145
147
133
114
130
150
146
162
178
180
190
204
195
192
163
156
181
178
161
152
155
158
175
180
163
175
167
170
158
156
162
160
146
144
134
243
243
234
231
221
222
212
211
223
210
207
202
204
204
202
202
231
234
234
226
220
212
195
210
207
213
214
218
217
206
214
204
187
190
178
156
163
200
193
165
168
175
176
189
204
196
190
179
175
187
212
223
224
220
200
183
162
153
155
162
156
157
157
149
145
141
140
137
135
155
179
177
169
169
158
172
197
202
207
202
206
219
226
227
223
222
215
205
191
180
162
150
162
181
160
155
147
154
170
163
222
190
154
174
209
221
215
198
203
204
211
200
198
215
219
212
224
220
206
184
165
156
153
182
197
199
195
186
185
166
169
173
170
171
173
165
173
185
180
185
180
192
198
183
164
167
154
140
138
149
181
181
184
184
167
159
141
135
135
127
118
125
141
122
100
107
111
108
115
128
127
144
133
136
162
178
186
199
196
186
205
218
214
213
206
201
212
214
208
193
155
150
156
161
160
166
164
155
165
171
199
181
169
180
186
193
175
166
183
178
154
157
172
167
175
170
178
176
168
169
182
184
192
175
176
196
200
171
169
149
163
159
173
182
192
199
191
186
174
169
173
181
181
175
145
137
139
129
123
126
153
148
144
164
145
148
159
154
144
140
138
136
113
123
124
130
120
102
107
120
124
129
144
159
176
184
192
198
205
205
201
210
215
207
192
174
187
221
208
178
173
182
189
168
169
180
166
170
193
170
180
176
185
201
189
181
186
182
162
169
188
196
199
200
202
198
169
171
171
195
193
194
188
184
189
185
172
164
158
151
141
148
169
181
190
184
177
171
153
139
152
147
157
169
155
149
146
139
138
136
154
147
144
147
148
134
133
143
138
142
148
156
158
150
116
111
117
94
91
97
122
129
110
111
129
146
150
173
191
179
168
180
181
188
186
193
191
186
168
157
156
166
170
158
146
162
158
137
160
146
171
172
164
185
204
196
187
171
203
232
251
240
238
241
239
224
209
179
158
157
177
208
226
233
225
195
157
151
157
159
177
174
168
175
166
156
160
163
156
146
160
162
144
123
121
144
163
144
135
120
120
137
118
111
126
130
144
140
123
121
119
112
106
107
114
87
76
71
75
71
74
94
104
99
111
146
158
141
143
173
181
182
181
181
186
185
166
174
193
191
156
125
123
136
165
170
140
139
167
164
203
197
194
195
210
222
228
238
243
242
231
213
189
210
209
202
192
176
179
198
195
191
185
175
184
179
149
139
145
160
164
141
131
128
114
108
119
137
140
128
148
148
151
153
152
157
141
114
105
119
129
139
142
127
127
134
116
109
116
117
118
108
100
111
117
109
93
98
106
84
80
82
84
100
106
114
120
141
142
135
157
182
188
194
204
203
181
160
171
191
173
156
149
142
145
120
107
131
148
138
215
222
212
204
203
219
236
229
222
224
226
217
177
183
191
191
192
173
171
189
194
184
167
154
161
173
162
155
152
151
136
129
138
131
122
111
127
135
122
114
110
113
123
117
122
140
120
97
111
119
130
135
137
136
128
139
131
122
140
129
133
137
131
120
117
119
105
92
99
94
98
94
98
109
107
98
105
139
150
136
134
154
148
148
160
157
147
149
163
160
154
150
157
152
134
113
104
110
124
118
208
210
201
207
221
225
233
241
243
237
231
220
190
180
182
177
171
161
153
150
146
156
162
153
153
158
151
153
160
142
118
119
109
107
111
107
108
115
116
118
108
89
93
102
102
109
114
110
118
128
131
129
128
127
113
125
125
132
157
159
148
133
121
114
113
103
102
102
102
93
80
67
74
86
98
94
94
104
123
140
143
141
143
152
161
159
158
150
139
126
124
129
146
139
134
120
134
147
152
143
198
209
215
225
207
189
199
205
217
228
228
222
208
199
182
169
164
157
145
130
116
118
136
139
129
126
127
134
130
128
135
133
108
102
100
110
122
110
101
107
107
90
89
95
94
105
120
113
118
120
143
146
132
129
137
148
143
156
152
140
135
122
112
106
97
90
95
90
86
81
63
65
85
89
97
105
111
111
114
110
121
129
139
142
141
162
175
170
162
159
164
153
144
132
124
122
133
140
149
152
186
173
211
211
211
196
200
213
224
221
207
182
170
174
158
133
119
128
136
130
124
119
116
118
125
127
112
104
99
97
100
107
112
109
99
104
109
111
104
109
107
100
99
104
94
98
114
121
128
129
136
139
125
132
115
146
148
144
132
125
120
118
104
116
110
100
98
88
82
79
88
88
78
71
81
85
75
86
90
94
113
127
109
109
108
130
155
154
143
136
145
157
141
122
117
95
101
110
117
113
220
221
182
204
223
196
158
169
174
164
146
131
139
155
148
138
118
102
107
123
129
130
130
127
118
115
116
111
98
99
84
94
96
97
89
95
84
73
80
101
91
95
114
105
93
136
146
128
128
137
143
139
119
123
105
126
149
156
147
144
134
125
118
99
100
100
108
90
87
77
70
75
75
78
83
80
69
68
81
100
92
95
102
111
124
114
128
135
113
108
118
129
118
130
119
110
122
115
114
113
220
210
196
197
180
186
184
164
142
138
144
137
123
118
98
97
108
119
124
132
133
121
101
90
84
92
98
91
82
81
88
96
98
96
81
84
87
76
68
67
70
82
86
92
100
121
125
131
131
146
152
147
137
118
128
141
126
142
134
146
141
133
133
122
121
132
132
102
83
79
77
70
62
59
71
76
83
107
95
80
70
71
97
109
111
106
119
109
98
98
97
124
105
97
95
104
126
117
103
90
184
219
217
210
202
181
163
161
143
120
117
116
105
98
89
86
80
81
86
83
83
96
88
87
82
83
86
89
77
78
75
77
82
91
86
89
79
71
85
73
80
83
86
96
115
123
124
135
139
137
124
136
129
120
147
138
141
139
139
131
127
133
147
151
136
127
122
113
97
97
96
86
63
59
62
58
67
73
61
73
84
93
98
109
113
117
120
116
111
103
109
107
88
82
75
93
89
96
118
121
186
187
180
178
189
172
148
135
105
102
99
107
118
100
94
94
98
97
94
84
76
85
93
89
91
95
94
86
82
87
82
79
78
86
88
78
68
68
83
80
94
96
91
108
121
129
141
135
135
147
131
128
126
120
128
142
154
148
138
141
142
146
152
136
119
109
118
105
96
107
98
82
67
61
60
60
65
57
71
88
102
118
134
142
138
129
136
142
151
151
148
133
118
125
137
144
134
129
135
130
196
194
187
178
183
167
154
141
130
113
106
118
113
110
104
82
79
87
92
85
79
85
92
88
87
87
89
91
82
83
80
75
80
87
80
74
68
74
79
84
85
84
93
119
130
119
135
147
147
148
133
138
127
129
140
137
137
133
140
138
150
158
156
139
133
131
124
108
92
93
81
66
56
55
54
53
53
59
74
82
93
111
126
142
158
171
178
192
215
225
230
227
216
208
208
224
223
222
218
201
183
186
178
167
163
140
129
138
125
108
117
110
88
92
89
83
79
89
89
80
80
77
82
91
79
81
93
94
98
86
80
77
75
69
67
72
66
68
77
91
98
97
96
125
147
143
152
160
164
171
160
165
171
174
172
156
157
154
165
176
186
184
168
147
136
139
131
119
110
99
82
71
71
63
55
56
58
55
57
58
66
72
85
100
112
116
125
152
171
176
195
212
225
226
240
255
255
255
250
214
196
186
171
148
152
155
134
119
118
121
118
102
92
90
85
83
78
86
87
74
77
82
83
88
91
93
89
88
91
84
68
72
75
68
85
80
65
61
76
100
97
102
117
131
153
164
160
165
187
193
207
203
199
194
190
194
193
187
183
176
153
126
113
106
102
113
110
108
98
95
86
76
67
66
74
71
69
65
62
64
51
55
59
58
62
97
122
132
136
144
168
182
192
207
227
242
247
241
227
196
190
196
179
150
139
125
115
122
108
90
86
96
100
96
79
91
99
91
77
74
83
84
81
81
73
80
90
102
115
107
91
92
101
115
106
89
70
68
88
94
94
110
119
119
123
140
144
156
167
169
174
162
155
168
180
193
193
190
155
127
108
99
83
86
91
95
96
99
97
96
104
99
102
106
118
109
85
66
60
60
55
70
73
74
79
93
97
103
115
153
178
185
195
194
181
177
179
190
178
169
179
175
161
152
129
106
119
121
93
93
99
96
92
93
86
85
99
108
106
91
79
95
91
95
101
120
116
104
103
96
81
82
73
63
87
87
72
84
85
91
110
123
110
123
140
154
141
129
117
110
124
113
108
110
108
111
110
114
88
82
82
83
80
83
79
73
84
98
99
91
93
106
112
93
78
67
57
58
49
55
54
56
71
70
92
115
129
149
152
151
147
144
148
163
183
197
194
173
157
166
207
194
160
140
145
139
125
115
111
112
113
112
104
90
86
78
90
93
87
85
90
92
97
119
128
130
125
119
100
84
81
89
71
63
78
93
91
76
75
88
86
90
97
108
116
128
122
107
94
89
87
93
93
83
84
85
83
83
79
80
74
70
75
75
76
78
90
103
112
124
134
137
124
88
74
84
81
65
59
73
83
75
60
68
99
136
157
159
157
170
194
205
199
183
190
180
169
169
161
172
202
170
148
141
129
111
102
103
107
108
107
104
107
99
75
76
79
103
110
93
102
101
117
133
134
124
115
113
100
88
74
75
78
64
65
76
75
86
95
97
99
98
112
118
121
128
126
110
93
86
84
85
82
82
83
80
77
76
75
77
73
75
74
74
78
84
99
113
123
137
145
127
96
86
86
80
80
76
73
87
75
56
64
75
69
89
104
114
123
127
151
172
194
202
194
188
166
151
154
178
195
178
158
147
134
110
101
102
100
92
81
81
83
85
77
79
86
99
106
95
112
120
133
144
147
143
136
131
120
101
74
65
75
68
63
68
70
87
94
104
105
105
113
116
129
131
116
100
83
73
74
80
81
78
78
80
79
76
80
72
72
75
79
81
86
86
96
105
129
146
143
125
121
123
120
90
80
73
77
99
93
73
71
73
60
68
79
75
87
108
124
137
147
137
124
143
156
170
182
185
171
177
159
138
118
98
88
82
87
80
78
69
67
72
74
72
70
84
98
108
110
112
146
169
180
167
146
129
105
85
66
56
65
79
82
80
73
90
109
117
108
104
109
120
121
109
95
83
81
73
73
82
78
72
74
79
76
73
80
74
74
82
91
95
103
131
149
174
206
203
181
147
138
132
120
106
84
71
76
73
81
73
61
61
61
60
67
64
64
74
89
96
108
121
131
133
141
174
194
208
150
155
126
103
93
77
78
79
79
77
68
65
71
73
75
86
93
97
104
101
95
96
118
145
156
138
112
97
80
72
74
72
66
76
87
86
93
109
126
137
143
147
147
132
115
111
98
83
79
79
67
80
78
75
77
79
71
77
84
82
78
75
86
100
109
123
153
193
204
197
179
151
149
148
138
121
90
62
60
51
58
56
56
54
58
52
67
76
70
75
78
81
95
97
116
123
111
105
141
179
148
139
117
102
95
84
85
78
71
68
71
78
85
91
103
107
107
108
101
79
88
97
92
99
98
91
73
75
79
77
79
70
65
69
85
94
95
103
108
108
128
147
149
133
120
109
93
81
78
78
66
76
80
81
79
82
75
78
79
77
77
79
84
82
89
97
105
122
133
143
154
143
144
148
144
119
93
68
55
55
59
67
59
48
49
49
50
59
65
61
64
73
84
96
101
104
128
143
164
183
154
129
103
92
91
92
94
86
78
70
72
75
73
68
69
68
77
83
83
89
92
113
119
128
130
94
72
75
90
80
73
69
65
88
101
95
105
119
137
141
142
146
135
106
95
91
80
75
70
68
71
74
84
85
89
86
81
76
88
86
74
76
79
76
79
96
115
146
165
146
117
121
115
115
127
105
95
95
75
62
59
56
45
48
54
51
56
60
66
69
70
64
70
78
93
105
114
120
126
137
135
123
100
86
87
82
75
67
72
69
63
75
81
88
86
91
85
82
80
82
88
105
110
101
93
82
70
69
75
72
64
63
63
75
78
84
106
133
144
147
139
128
108
93
85
78
83
81
76
74
79
82
72
78
83
87
87
86
86
77
78
86
83
83
93
108
133
167
175
163
153
137
133
127
113
111
123
112
78
55
55
55
56
53
50
52
50
53
66
80
78
71
86
90
87
93
105
103
116
145
101
107
90
87
85
82
78
80
77
64
61
62
67
73
82
93
91
79
77
79
80
92
92
88
85
75
70
79
73
67
60
68
68
64
69
75
85
107
126
120
102
89
89
78
88
84
81
82
83
74
81
77
76
84
86
89
82
81
80
75
82
87
90
92
98
117
144
165
168
161
160
167
179
162
132
120
119
91
79
77
57
53
51
43
47
59
66
65
66
56
50
57
65
61
70
88
108
129
141
146
104
102
92
78
67
72
79
70
62
67
67
61
58
59
64
79
88
98
92
85
92
103
100
97
93
81
72
71
72
67
59
60
64
71
82
91
100
109
123
112
103
86
85
75
87
84
80
72
75
76
81
85
85
90
88
90
91
85
84
75
80
89
88
88
90
110
128
152
164
173
183
175
166
126
111
118
106
81
72
68
61
59
53
50
50
49
51
61
67
69
74
78
80
82
84
82
88
106
119
121
119
99
88
84
76
71
77
66
59
63
67
61
52
51
55
60
66
88
94
89
88
97
104
100
95
86
74
69
69
64
56
50
52
65
75
79
83
89
91
88
86
85
91
85
90
82
77
73
74
77
78
86
84
95
88
83
90
87
75
84
86
84
87
91
87
89
97
118
142
172
193
191
170
148
151
137
116
111
104
93
80
64
54
60
59
50
44
49
51
59
73
84
91
93
84
82
85
94
96
92
108
93
86
82
73
68
63
57
56
56
62
62
58
52
53
64
67
71
82
90
85
85
86
83
87
81
77
89
87
69
60
66
77
84
94
82
87
97
103
105
94
87
87
84
88
83
75
79
87
84
87
87
84
95
92
90
94
79
77
88
92
88
83
94
86
91
86
94
107
128
128
135
143
144
157
146
135
141
144
122
97
78
70
70
54
47
56
53
51
54
65
80
87
81
94
106
111
113
113
114
138
106
72
66
64
61
64
69
66
63
60
61
58
58
60
67
68
78
84
89
83
78
87
104
108
97
86
81
76
70
76
85
91
92
86
112
132
140
130
113
95
89
87
86
87
88
84
83
90
80
90
101
93
90
91
96
92
85
79
90
96
91
87
95
90
90
89
92
105
130
151
142
140
155
159
139
120
133
147
123
91
79
78
78
82
81
79
67
56
51
49
62
73
81
86
84
88
93
93
84
124
101
75
64
59
59
55
65
61
55
53
50
54
56
56
61
63
78
95
114
119
114
104
97
97
85
70
57
60
63
74
77
72
63
68
111
147
156
141
123
108
98
94
86
85
87
81
88
92
87
95
104
96
93
96
99
95
92
93
87
88
89
94
96
80
86
84
92
110
117
136
165
194
196
182
171
160
121
80
83
94
88
79
81
91
92
70
52
62
73
77
74
75
68
76
85
82
87
99
95
138
122
93
70
69
66
60
53
51
57
52
51
54
56
59
63
69
68
79
92
93
87
73
69
67
64
63
53
50
51
60
61
54
58
74
103
119
129
127
108
101
88
87
88
86
91
94
89
87
97
100
100
96
102
95
92
96
91
88
94
97
95
91
96
97
87
89
86
85
81
92
115
148
162
148
150
181
173
135
115
101
92
85
76
72
77
85
93
95
77
63
69
64
57
65
73
72
70
71
77
111
99
79
69
62
60
60
51
55
55
51
52
52
58
59
61
69
73
84
93
91
90
83
77
79
71
68
67
59
61
65
69
78
88
94
100
111
118
108
97
96
79
86
89
89
90
86
91
93
93
98
97
97
98
92
86
93
93
90
86
89
95
86
91
97
90
86
79
77
76
81
83
96
134
159
170
177
160
127
139
122
99
85
65
56
60
68
74
70
64
60
53
57
54
55
60
69
70
77
84
96
90
74
68
56
48
56
48
54
55
54
56
54
52
51
60
61
68
74
87
88
85
75
77
78
76
67
68
55
50
58
64
71
82
87
94
107
118
111
101
95
89
85
93
91
82
87
92
95
93
104
106
101
97
99
96
96
91
90
96
98
93
88
99
98
86
87
84
77
73
69
71
79
85
95
102
105
99
117
132
132
117
92
91
84
72
55
52
50
49
43
43
49
52
54
54
60
76
74
86
87
87
75
64
57
50
52
48
48
50
50
52
48
50
53
56
61
65
72
83
82
81
72
67
69
78
77
76
59
53
50
60
63
81
102
115
112
108
96
89
87
89
91
91
90
92
96
92
90
100
99
98
98
97
98
96
102
106
99
104
100
100
97
93
102
91
81
85
81
83
77
72
76
68
70
75
80
74
68
62
62
61
59
63
71
72
61
47
41
44
43
42
45
41
42
48
55
52
50
67
67
59
64
66
55
49
47
44
41
48
52
50
45
52
55
57
65
66
77
78
75
70
63
62
69
75
72
63
51
55
54
59
73
76
80
83
90
88
87
88
92
90
95
89
91
89
99
95
85
101
96
97
95
95
93
100
105
98
101
106
87
93
98
89
96
96
87
87
84
83
82
79
71
70
72
72
72
69
61
63
56
57
63
65
64
56
49
53
55
55
51
47
48
50
60
72
73
64
67
77
67
69
60
55
50
47
47
54
45
47
50
50
50
53
53
55
60
63
75
95
99
85
77
82
80
74
60
49
51
53
53
52
58
62
72
77
90
85
85
89
87
88
94
88
93
92
101
99
89
91
92
99
95
96
100
105
93
95
97
104
96
97
98
94
96
93
86
88
92
93
82
78
70
69
71
69
64
67
65
68
59
58
64
57
56
57
57
56
63
57
49
46
46
52
54
53
49
57
68
74
71
59
55
53
52
49
51
56
44
42
45
45
48
52
51
61
63
67
69
83
84
72
69
72
74
77
62
55
44
45
52
58
75
84
98
93
98
92
89
87
92
91
83
89
96
92
91
93
101
92
89
87
91
100
99
104
94
100
97
102
100
100
98
103
98
92
94
92
97
93
89
80
74
72
71
61
65
65
65
68
67
71
77
72
75
82
68
56
52
47
40
45
44
44
40
42
49
53
48
48
62
58
46
44
47
52
56
51
47
44
46
46
42
51
49
54
62
69
70
69
77
82
67
69
62
60
61
52
50
48
56
60
68
78
88
103
99
98
85
86
88
89
90
89
100
94
90
98
99
88
99
96
95
95
98
83
83
92
94
96
97
100
94
94
87
88
86
80
82
85
86
78
72
64
68
65
63
59
72
89
103
105
90
81
93
95
81
66
67
62
53
44
46
40
40
46
52
51
44
42
53
57
50
50
59
52
54
51
50
49
45
49
50
53
49
49
51
62
71
80
75
81
77
74
63
51
58
59
49
63
69
74
73
75
86
114
120
106
88
86
87
98
92
89
99
98
86
89
96
100
101
95
87
93
96
90
82
92
97
98
95
91
99
92
90
89
86
88
86
81
78
75
65
63
72
70
71
71
68
67
62
54
57
57
56
60
47
46
51
43
40
42
39
35
42
47
59
75
76
70
75
67
55
55
63
64
53
54
51
49
49
48
53
52
46
50
57
68
72
84
85
75
59
55
54
49
50
59
63
69
74
69
71
70
75
86
84
89
89
82
83
87
88
86
96
97
92
88
88
94
96
89
88
94
89
95
85
84
91
103
90
89
83
91
90
89
89
84
89
85
79
71
66
72
77
77
80
69
64
62
60
67
74
69
61
52
49
45
40
36
40
41
39
39
38
40
52
59
63
62
80
62
53
55
61
60
53
50
50
47
48
51
52
54
48
53
63
68
75
79
76
72
66
62
64
72
76
86
99
92
76
71
72
75
77
93
96
88
81
81
87
85
83
93
84
85
90
90
93
96
98
90
93
96
91
92
91
92
94
102
95
92
91
92
95
88
88
84
84
79
76
77
73
77
81
77
74
73
67
69
63
63
60
54
55
56
53
47
49
42
40
37
38
37
40
41
38
35
34
41
69
61
60
57
56
54
59
49
48
47
44
47
50
52
52
52
59
66
73
82
87
84
82
76
67
71
74
78
103
94
75
74
74
82
89
102
95
83
76
75
86
89
85
87
88
86
87
94
93
93
94
91
89
87
88
90
90
93
88
97
98
90
87
81
91
85
83
86
84
80
82
79
78
71
79
77
70
65
70
80
88
96
79
61
56
59
58
48
43
40
41
36
40
43
42
48
44
44
45
56
68
56
52
53
52
58
62
48
43
45
49
52
53
54
56
59
54
63
75
89
116
126
124
110
84
68
56
50
60
64
66
68
63
68
81
99
99
93
81
79
86
83
85
91
90
91
94
92
90
91
92
96
87
81
86
91
90
94
89
96
92
85
81
86
87
86
82
85
85
87
78
71
80
74
72
70
65
83
105
131
143
132
101
74
60
52
55
50
47
51
48
43
41
43
44
47
50
58
61
67
62
47
49
51
49
50
48
42
45
51
49
47
53
50
50
59
62
69
71
82
98
114
118
105
94
82
72
70
57
49
53
56
63
77
92
103
97
94
80
78
83
79
80
86
90
91
96
96
87
93
87
94
91
86
88
89
86
92
94
92
87
80
74
86
86
89
86
82
82
83
72
67
73
69
70
67
69
75
99
113
99
79
67
57
63
59
49
43
41
47
45
45
40
41
38
40
40
40
43
44
77
71
67
69
64
58
50
43
44
44
45
49
49
47
54
55
57
66
67
76
75
76
73
68
65
60
50
46
41
39
46
53
63
67
81
101
104
100
74
78
80
82
87
91
93
89
90
86
91
90
81
93
92
90
84
86
86
93
96
92
85
83
91
83
85
80
82
73
72
77
74
71
63
67
62
69
69
64
75
92
83
66
60
52
46
57
53
43
38
41
42
43
39
37
36
36
37
41
46
51
97
84
62
51
51
56
51
51
51
53
50
49
47
49
52
56
52
57
66
69
66
74
67
70
62
52
44
44
39
40
46
46
55
62
72
99
103
85
76
81
68
75
80
83
88
93
90
88
95
86
82
87
88
82
85
81
79
93
89
89
80
75
87
81
80
80
72
76
73
78
78
62
80
74
70
72
78
94
103
123
145
138
109
76
55
59
63
58
52
45
39
36
38
40
37
34
37
40
37
41
73
69
61
51
47
49
52
59
62
56
48
51
53
46
46
54
58
58
57
62
70
85
95
101
89
71
57
52
42
44
47
50
57
66
74
86
86
79
78
78
72
77
81
87
86
87
80
83
85
84
93
91
86
80
86
86
85
88
84
79
82
85
83
81
81
80
79
77
71
73
72
70
80
92
103
101
86
84
109
130
140
141
124
93
75
69
63
61
54
48
47
43
41
39
37
38
40
41
43
50
90
92
86
75
64
64
67
75
82
74
50
49
49
47
51
47
49
54
58
57
60
65
69
76
75
72
61
52
40
41
46
54
58
62
72
80
88
83
79
77
76
82
75
72
80
77
85
88
83
83
90
88
88
85
85
84
90
86
81
84
87
82
76
73
75
83
79
72
71
76
79
82
98
108
113
109
85
74
82
103
138
149
134
101
72
65
69
65
52
42
39
37
40
41
41
40
38
39
47
46
57
68
81
69
59
56
59
71
76
74
58
51
47
44
48
52
52
52
53
54
62
59
60
59
62
57
53
51
41
42
55
59
63
65
66
65
69
80
80
78
80
82
76
71
75
74
80
85
84
77
89
83
90
86
83
86
85
83
79
82
87
84
78
72
68
66
71
74
78
82
84
96
112
119
133
146
128
107
91
99
113
127
113
84
68
57
50
43
41
34
36
38
38
39
38
36
35
37
41
43
78
83
78
71
66
62
57
65
75
82
73
51
48
57
53
59
56
55
50
53
61
62
62
57
60
49
42
41
38
39
42
41
45
48
53
61
64
71
75
79
82
73
71
71
70
72
77
79
86
83
88
82
88
83
83
85
81
87
87
79
81
79
77
71
70
66
76
75
80
85
90
110
124
135
149
158
145
112
97
97
106
107
86
66
66
54
41
36
41
40
42
41
37
37
38
32
32
33
34
40
63
67
63
64
71
73
70
66
61
63
66
59
54
54
54
58
54
54
50
53
61
57
55
52
52
47
45
42
39
38
39
42
47
48
51
67
71
76
75
75
79
79
75
76
73
81
79
80
78
80
78
85
83
77
81
79
76
85
89
71
76
73
68
78
73
75
83
81
85
100
113
129
141
148
143
125
108
101
101
114
130
113
95
93
94
76
55
48
44
47
41
38
36
37
39
37
37
33
39
41
66
64
65
68
75
76
71
68
61
51
47
64
61
50
56
58
58
57
55
47
56
55
48
48
49
47
41
41
38
35
42
50
61
66
72
85
102
109
94
79
69
77
81
80
66
80
83
83
82
85
74
74
79
77
79
83
82
81
77
68
68
68
72
78
73
73
78
80
88
103
116
129
143
136
123
131
141
143
128
123
135
134
115
88
69
68
59
46
41
40
38
37
35
39
38
37
35
37
38
43
69
62
58
63
62
63
65
73
75
56
53
65
58
42
47
61
62
57
50
51
56
55
57
46
43
43
42
44
38
42
50
56
66
63
62
61
63
63
63
66
70
75
74
81
76
71
77
77
78
82
74
75
73
75
73
74
77
71
67
68
78
82
74
68
76
71
65
76
82
88
97
112
109
93
88
110
127
133
123
117
132
138
130
110
90
81
70
57
53
46
39
34
32
32
34
36
34
35
35
38
71
66
61
67
67
66
76
76
77
56
48
63
73
69
64
57
53
51
47
49
54
50
54
49
50
49
42
44
35
41
47
48
54
58
62
55
54
65
80
79
74
76
81
77
74
69
73
76
80
73
83
73
72
69
66
67
75
76
73
69
69
75
69
71
69
73
70
71
66
71
81
107
126
115
94
100
119
135
146
148
156
136
98
76
70
59
56
49
43
41
40
35
29
31
35
35
34
34
38
42
76
53
45
52
64
69
64
71
77
71
56
58
74
77
74
71
66
55
54
56
58
53
54
49
48
46
44
42
38
41
49
54
61
64
57
58
76
108
130
130
110
81
80
74
72
73
77
73
75
84
84
74
72
67
67
74
73
71
66
67
68
70
63
63
70
64
75
69
64
65
79
101
113
108
97
113
146
169
177
169
146
116
92
72
62
55
45
46
49
48
42
37
36
37
33
34
35
35
34
38
57
48
49
61
71
78
90
95
101
88
63
56
65
72
83
92
83
62
48
49
52
52
52
50
46
42
43
40
42
36
46
53
59
58
63
85
102
116
127
129
114
92
80
78
73
74
78
72
71
75
78
69
77
71
64
71
71
73
68
75
75
64
63
65
67
69
75
63
58
65
80
94
115
131
130
127
122
119
146
148
119
98
82
76
60
50
45
38
41
39
35
37
37
38
34
35
34
31
34
39
65
66
79
79
70
63
68
75
77
69
56
58
62
68
71
80
75
69
68
66
58
53
52
45
42
38
41
48
49
45
47
49
51
56
71
86
95
108
128
139
143
135
108
86
72
73
74
68
66
74
67
61
73
74
67
66
68
70
70
68
69
65
66
73
70
74
73
67
66
72
79
83
108
142
159
155
143
143
133
119
89
76
81
83
66
52
49
45
42
38
33
34
38
35
34
36
36
33
37
37
70
67
65
67
72
75
62
53
57
80
82
64
47
52
70
83
84
83
74
59
52
49
45
44
43
43
47
45
45
47
50
50
54
59
65
72
84
96
103
124
147
150
133
104
79
75
73
69
69
72
64
62
59
68
73
63
63
69
63
68
67
69
67
68
76
75
74
70
64
71
73
74
93
115
128
135
153
173
151
124
97
84
85
78
63
47
39
47
49
42
37
41
40
34
35
35
35
35
33
37
93
82
67
69
82
83
55
39
56
101
119
105
66
54
78
92
85
73
72
69
68
65
64
60
48
43
46
46
46
43
42
47
56
58
55
58
94
104
94
92
91
97
106
110
98
83
77
68
69
59
61
59
53
63
66
63
66
65
69
67
64
62
66
68
65
65
65
60
61
64
65
62
68
78
103
141
168
173
155
125
107
98
82
56
44
40
39
39
42
44
36
36
36
33
35
32
36
35
42
48
69
63
60
78
84
96
82
55
55
72
89
102
83
60
59
74
76
68
65
78
83
76
65
49
42
39
43
40
41
46
44
45
50
55
47
46
58
67
69
72
73
95
91
83
80
72
67
65
65
60
63
57
59
62
66
68
66
63
62
62
61
59
65
66
64
58
58
59
61
60
55
59
59
72
102
117
122
106
102
107
101
101
83
55
46
43
38
47
46
38
36
37
37
33
36
39
46
37
35
50
54
52
49
49
54
78
78
57
46
56
53
71
81
70
52
47
58
61
61
58
58
62
55
49
45
43
42
39
42
42
44
48
46
44
43
50
43
42
64
95
105
99
99
99
100
92
81
66
63
60
55
57
64
65
61
67
66
57
52
56
55
57
59
55
57
55
57
56
60
57
57
57
59
57
60
72
94
127
130
121
115
91
68
58
51
44
40
45
48
47
38
34
34
38
40
40
35
33
39
38
37
40
35
41
49
49
47
42
52
61
67
67
69
68
65
65
64
66
65
59
59
51
52
62
65
54
44
40
38
43
45
44
43
48
53
51
44
47
69
84
89
90
93
99
102
101
95
88
75
65
62
62
60
56
63
62
57
57
60
64
60
55
52
60
60
62
61
60
59
60
65
60
57
55
58
77
95
103
114
122
109
96
77
67
61
47
46
49
46
46
41
35
32
36
34
39
39
37
39
36
42
51
48
54
62
58
50
55
65
73
71
60
59
60
61
78
79
71
67
60
52
50
65
80
67
47
41
39
41
41
41
44
49
52
53
55
49
51
56
72
82
87
103
111
116
115
101
84
73
71
62
61
60
56
58
56
54
57
62
61
54
54
55
62
58
59
65
61
56
59
51
54
48
55
59
65
75
86
82
80
71
60
55
48
44
44
48
51
46
44
39
34
34
37
38
37
33
37
47
53
52
60
61
58
59
52
53
70
76
75
70
56
51
59
64
54
55
70
72
63
61
64
63
60
44
36
38
40
45
41
43
45
49
54
56
56
45
45
45
52
67
91
120
131
137
127
104
92
78
75
76
64
60
55
56
55
57
57
64
63
54
50
57
62
58
62
61
61
53
57
49
47
53
57
57
57
66
65
57
48
47
41
42
36
39
37
40
39
38
40
40
41
41
44
43
37
35
39
47
52
53
51
52
51
45
45
47
54
57
57
55
54
56
62
64
59
62
75
73
59
53
61
56
48
46
47
50
48
44
41
46
51
66
72
67
59
43
42
42
48
63
74
92
112
116
107
108
114
103
85
66
67
64
56
52
53
52
52
58
60
57
53
57
54
55
55
55
49
44
54
52
49
58
52
52
46
48
46
42
45
41
37
40
42
41
44
50
50
48
45
43
42
48
45
45
43
42
57
73
79
59
43
43
53
53
49
47
42
39
42
41
54
64
66
58
75
74
77
79
77
77
65
58
52
48
46
47
45
44
45
50
51
58
55
62
64
53
55
56
63
66
58
60
75
86
95
96
100
99
92
91
91
82
74
65
56
54
59
57
56
63
59
51
53
51
51
54
47
49
48
46
44
46
52
54
53
57
51
44
48
41
40
40
38
49
47
51
54
57
60
54
49
43
45
58
65
66
77
99
100
39
41
39
39
36
39
45
50
52
50
51
64
73
73
67
67
69
63
65
66
71
73
67
53
45
50
55
51
41
42
40
45
55
56
52
53
55
53
51
48
44
44
47
66
83
90
102
101
101
97
98
106
103
94
81
62
52
52
59
49
59
60
56
59
50
53
56
52
51
50
46
40
47
48
51
62
64
49
41
37
38
43
45
45
42
46
55
65
73
72
61
56
69
67
72
75
77
105
117
100
42
42
39
43
44
47
50
50
48
39
41
45
57
67
72
70
75
84
92
91
80
66
66
58
57
55
57
53
43
48
54
59
64
70
85
92
84
84
81
59
49
54
64
65
72
80
85
90
97
97
96
102
87
69
68
66
60
55
53
57
57
50
50
55
52
49
51
50
52
52
56
50
47
52
53
53
53
47
37
40
42
56
55
47
42
49
60
61
57
68
82
97
108
104
85
68
92
113
110
97
43
37
36
40
45
42
50
54
53
49
52
45
37
46
44
45
49
58
71
81
78
71
67
58
53
48
48
43
42
49
52
53
56
51
50
56
79
83
79
71
70
72
69
57
57
67
75
75
87
93
93
97
90
80
66
68
64
56
52
57
62
60
58
57
55
58
60
66
73
66
73
71
60
53
49
46
46
49
41
42
50
53
41
38
46
60
65
69
85
105
127
123
100
85
94
121
148
156
138
94
40
42
44
49
48
47
49
48
52
49
45
46
45
46
45
49
57
57
67
69
73
81
71
70
66
60
59
51
47
50
53
61
65
69
67
66
67
64
77
87
86
79
74
79
80
89
101
101
95
101
109
103
97
89
80
81
81
80
67
63
75
92
94
101
87
94
94
96
92
85
90
73
61
49
44
43
47
54
55
54
50
41
35
39
39
54
72
92
115
132
130
113
107
120
137
159
171
158
125
100
48
51
53
54
51
47
41
44
52
49
43
49
51
51
51
68
70
64
61
64
68
68
78
84
87
91
80
57
55
55
54
60
66
69
86
94
80
74
90
107
104
96
89
100
116
111
107
96
78
78
94
107
105
114
120
114
98
91
100
97
97
118
123
127
130
131
125
113
96
83
74
57
49
45
44
42
43
44
47
57
46
42
40
45
62
91
121
152
173
179
181
179
170
183
180
168
147
135
118
94
44
43
45
42
40
40
42
56
62
55
50
56
65
73
66
88
76
56
47
55
58
59
76
78
91
91
70
50
47
51
49
49
49
42
60
75
74
73
85
88
92
103
112
127
137
127
110
103
86
83
90
78
79
109
136
129
100
95
131
123
102
99
100
111
119
118
108
91
73
68
59
52
48
52
49
43
40
42
43
53
47
45
43
64
107
155
181
195
201
197
191
187
190
186
191
182
160
154
147
121
38
46
47
46
40
39
41
43
45
52
54
52
55
64
71
77
72
62
60
74
69
66
69
76
80
74
68
55
44
42
45
42
38
36
48
67
68
63
71
71
100
116
104
108
132
143
137
131
128
123
122
106
97
115
137
132
107
99
118
109
96
103
110
99
82
74
69
68
71
65
56
48
50
49
49
41
38
39
46
50
51
56
66
99
129
153
173
190
200
200
190
174
162
151
159
156
165
173
159
129
41
54
63
52
41
41
44
44
47
47
46
43
50
58
70
68
66
70
79
76
82
79
84
78
79
88
88
68
51
47
48
46
39
42
57
61
74
79
68
79
108
126
130
128
126
138
147
144
140
137
131
129
118
108
120
114
96
94
96
93
100
101
102
97
72
68
76
83
75
57
45
43
40
40
41
44
45
49
54
57
55
75
99
128
147
166
183
196
197
193
189
185
175
168
171
169
149
128
115
109
41
44
44
45
53
64
69
65
64
72
74
67
61
57
64
66
67
70
69
76
76
79
75
73
84
97
120
129
117
103
109
110
82
69
83
84
88
90
81
74
73
95
111
127
137
143
148
150
148
141
124
101
90
94
116
116
107
119
105
105
113
108
97
95
77
79
69
60
53
51
46
48
42
40
39
42
48
63
62
55
59
96
138
164
180
181
170
169
176
175
170
165
162
144
142
121
102
104
106
89
43
53
70
87
98
101
103
111
111
108
103
98
93
90
94
98
110
108
112
121
123
135
144
152
169
190
218
224
222
215
227
225
201
193
167
147
132
122
121
119
114
111
112
113
113
110
105
102
107
108
109
92
99
105
109
108
101
106
136
133
109
106
105
102
83
69
56
56
61
52
47
53
59
49
46
50
59
63
71
76
87
102
138
188
212
221
214
196
169
135
118
121
128
127
128
109
95
88
69
64
71
67
87
113
124
126
127
125
130
129
134
128
111
102
104
101
105
111
117
127
146
167
186
212
238
252
253
255
255
255
253
250
246
242
220
199
182
168
152
134
115
106
107
110
101
101
104
96
89
90
99
93
89
86
94
109
92
92
110
112
110
114
97
79
63
68
75
73
64
53
49
46
47
47
50
59
68
54
58
90
110
132
170
202
208
205
196
184
164
142
120
116
122
122
115
95
76
71
60
60
103
124
137
147
154
166
171
170
180
187
187
181
170
154
147
150
152
156
159
163
179
196
207
209
207
196
190
192
207
215
215
213
212
211
211
202
202
197
178
160
155
154
142
128
111
106
109
96
83
86
97
84
72
79
93
108
103
95
103
106
104
99
93
81
73
82
87
80
66
61
55
54
53
56
57
64
75
67
80
114
143
177
198
203
198
200
192
181
161
136
123
122
135
128
124
105
94
89
70
57
104
105
120
146
166
180
185
186
173
149
127
117
113
123
129
147
152
162
171
180
187
189
187
179
170
155
150
156
170
177
178
186
199
210
209
193
193
205
194
177
158
146
147
150
155
155
152
145
128
121
120
112
99
102
109
105
94
90
109
115
99
86
86
90
92
95
92
79
76
72
61
60
67
66
64
74
79
75
102
145
176
198
211
203
184
170
175
170
157
140
138
137
139
129
121
103
77
60
44
40
104
107
112
109
109
131
142
138
136
112
75
68
85
89
81
90
97
110
122
124
131
130
135
145
151
145
147
157
168
176
173
181
178
181
207
208
196
188
187
188
169
141
126
133
139
143
144
151
151
143
136
131
120
103
91
85
80
96
97
97
92
93
101
105
97
85
76
81
89
87
70
67
70
75
74
76
84
107
151
172
172
175
176
157
140
133
134
136
128
125
122
122
115
102
88
65
51
42
37
37
111
105
98
92
88
103
115
116
105
82
61
60
65
73
82
82
86
94
99
108
121
117
101
89
98
105
105
103
124
167
185
193
179
173
184
188
211
221
217
218
222
201
179
194
199
183
186
187
164
156
146
139
128
105
93
98
104
115
111
108
108
106
98
84
79
81
78
77
95
93
82
82
76
80
87
115
143
172
205
213
210
208
190
167
141
122
123
126
119
116
105
107
104
80
69
58
50
41
38
41
82
74
71
54
54
67
72
58
75
69
52
51
53
58
60
60
59
61
66
65
65
66
77
85
87
95
109
111
113
141
151
160
174
181
181
183
192
208
225
232
220
199
197
229
244
236
221
215
213
200
157
120
139
160
160
157
162
168
148
136
128
134
127
120
119
123
124
120
132
133
127
150
161
164
165
163
173
196
194
205
213
191
166
158
152
143
136
126
119
113
93
74
65
58
51
46
47
52
57
63
59
54
59
57
60
65
60
67
72
80
86
86
78
75
69
68
73
69
68
75
76
77
76
78
74
65
62
91
124
139
134
152
186
216
233
238
233
223
227
237
241
250
238
225
243
247
246
248
238
217
209
177
161
177
193
211
222
218
181
169
174
194
202
205
182
172
162
163
176
179
187
202
203
200
189
174
173
186
180
178
184
168
150
132
125
115
114
110
99
87
74
80
74
68
58
51
48
58
57
61
44
49
48
53
58
75
78
79
80
81
83
85
76
67
62
59
61
61
68
75
74
66
66
63
78
82
77
77
101
131
130
145
183
209
230
239
241
240
242
234
236
244
252
251
250
253
254
254
255
255
254
236
214
219
239
243
243
247
239
229
229
242
245
246
224
205
203
194
202
192
184
189
196
201
196
196
187
185
180
186
187
174
157
143
138
126
119
105
87
83
86
93
86
79
71
65
57
48
46
52
38
46
45
44
44
59
54
56
59
55
53
65
69
59
53
58
67
65
61
66
77
90
93
92
88
77
61
76
91
128
148
166
179
189
202
216
230
226
223
241
253
243
242
247
243
249
252
251
253
254
255
252
243
241
242
246
251
250
253
249
240
244
250
252
240
236
233
233
229
213
190
172
167
174
192
213
216
217
216
181
163
153
136
124
133
137
128
120
109
101
100
98
96
95
81
66
58
59
55
50
45
43
42
45
41
47
49
51
52
53
56
54
55
58
60
56
61
65
61
70
87
89
84
84
85
87
82
95
117
133
141
158
170
173
185
198
215
227
232
239
250
247
241
242
241
249
254
255
253
244
248
255
255
250
246
244
236
228
249
250
235
239
246
246
250
251
241
238
230
206
199
208
192
207
226
234
248
246
235
199
175
162
142
127
126
120
116
117
113
101
93
91
91
88
79
69
66
66
59
50
45
44
41
48
51
48
46
49
46
56
77
84
82
78
81
76
78
80
81
81
89
85
76
86
93
106
109
106
102
117
118
120
126
128
146
199
232
249
248
241
240
239
236
249
254
255
253
240
240
238
246
251
248
251
253
242
232
230
247
251
242
239
227
214
215
222
226
226
205
182
196
206
204
216
219
230
234
233
210
187
182
171
156
148
144
141
126
124
128
118
111
95
85
76
67
54
59
59
52
49
44
49
46
53
56
65
54
66
56
56
72
78
78
81
89
98
108
111
102
84
78
78
73
77
91
98
91
96
110
127
135
129
113
134
173
208
232
247
247
244
215
211
224
236
238
228
213
207
231
241
234
228
242
249
253
251
252
250
251
239
223
222
215
189
189
192
190
197
174
165
180
187
188
195
198
206
211
206
183
168
155
129
127
142
148
148
129
124
124
110
97
84
74
68
65
62
61
53
47
43
59
67
67
62
54
53
56
71
95
95
74
63
71
80
90
89
79
81
86
88
92
89
67
72
79
71
87
110
111
109
101
107
127
143
148
157
175
192
178
180
196
208
216
201
183
191
214
233
237
241
238
218
210
207
219
235
234
236
225
210
207
195
185
165
186
184
186
185
172
153
147
156
163
171
170
179
185
171
153
140
131
109
98
120
134
141
130
115
112
114
102
81
67
69
65
61
52
48
39
42
47
56
63
68
69
56
56
56
71
73
62
73
73
72
82
83
92
90
79
78
67
69
75
79
76
70
70
93
96
86
89
103
125
140
150
158
165
170
174
176
166
166
187
210
225
216
189
187
203
184
187
214
209
197
189
211
228
219
195
185
179
163
165
159
151
151
165
170
155
157
175
176
186
189
185
178
173
154
128
120
116
107
98
99
111
123
116
106
110
115
111
111
96
79
74
63
61
59
51
44
39
53
57
51
56
57
52
58
66
64
66
70
77
84
99
99
86
82
78
88
72
70
71
72
73
62
54
67
95
98
90
116
127
125
123
131
139
151
162
170
176
185
201
208
193
168
165
179
194
185
171
174
178
178
175
183
196
208
200
173
138
134
143
131
120
139
139
133
127
139
157
154
155
157
158
161
148
141
129
117
117
120
118
115
106
113
112
118
118
119
108
99
79
71
55
50
56
54
45
44
53
56
57
65
61
60
53
62
70
72
68
75
92
90
95
90
79
73
73
74
70
70
72
65
69
66
67
75
89
104
103
105
109
123
137
144
140
141
142
145
157
170
169
160
159
164
160
184
206
212
217
221
227
215
195
180
177
188
200
178
136
122
111
103
113
122
123
120
106
106
110
114
113
111
111
117
121
123
122
110
103
92
90
93
82
76
84
91
81
74
61
51
49
53
53
46
44
45
42
43
61
63
66
80
80
72
69
75
83
75
67
73
80
78
81
84
81
76
75
74
70
81
90
81
77
84
85
76
83
88
101
115
108
108
132
136
141
143
150
165
177
182
164
158
187
197
189
200
209
221
234
237
232
223
207
192
186
183
182
161
124
100
93
83
94
108
112
97
88
88
91
93
107
120
128
129
119
104
99
93
96
89
89
83
62
51
68
86
78
68
59
53
53
51
43
45
49
51
48
51
55
49
52
61
63
65
80
82
74
70
59
68
78
74
73
87
88
71
63
71
80
84
81
81
71
70
82
90
88
92
101
128
135
138
150
148
151
148
168
185
174
176
171
167
179
198
196
198
215
211
191
214
221
222
217
211
203
201
201
172
113
87
89
95
93
91
96
89
81
85
98
105
117
120
120
129
117
96
86
84
79
79
82
74
68
52
56
64
60
62
64
57
54
52
50
50
56
58
47
47
57
57
57
49
53
62
61
64
66
56
58
60
74
75
96
104
89
81
77
66
75
84
87
79
63
59
66
70
71
84
94
99
101
118
135
154
156
162
165
151
129
137
145
154
161
178
159
169
197
203
208
220
225
222
210
199
188
189
201
184
118
91
84
89
90
94
89
86
86
91
100
100
111
117
117
127
119
105
86
73
67
66
65
72
68
63
58
55
56
59
50
49
50
54
50
50
45
42
42
40
56
52
47
46
49
50
55
59
58
59
67
74
80
93
87
91
81
81
68
71
74
75
63
62
72
87
80
74
89
105
132
132
115
103
116
117
128
132
134
134
129
142
156
150
151
166
156
152
173
186
177
194
205
192
162
146
124
142
174
156
106
81
77
81
78
83
79
78
76
80
89
84
92
108
110
103
96
95
87
69
56
62
69
67
60
63
65
66
59
51
53
53
59
53
50
48
41
37
43
45
